<?xml version="1.0"?>
<!--Icons from directory ""-->
<svg xmlns="http://www.w3.org/2000/svg" width="62" height="682" viewBox="0 0 62 682"><svg viewBox="-15 -15 72.94 77.91" width="62" height="62" id="alam" y="0"><title>icon-alam</title><g id="alam-Layer_2" data-name="Layer 2"><g id="alam-&#xB808;&#xC774;&#xC5B4;_1" data-name="&#xB808;&#xC774;&#xC5B4; 1"><path d="m42.15 39.16c-5.09-2.3-5.29-12.17-5.29-12.42v-6.62a15.41 15.41 0 0 0 -9.43 -14.18 6 6 0 0 0 -11.92 0 15.41 15.41 0 0 0 -9.43 14.18v6.62c0 0.25-0.2 10.12-5.29 12.42a1.35 1.35 0 0 0 0.56 2.58h12.91a7.59 7.59 0 0 0 2 3.91 7.13 7.13 0 0 0 10.41 0 7.59 7.59 0 0 0 2 -3.91h12.92a1.35 1.35 0 0 0 0.56 -2.58zm-6.71-4.73a15 15 0 0 0 2.37 4.57h-32.68a15 15 0 0 0 2.37 -4.56zm-13.97-31.73a3.26 3.26 0 0 1 3.13 2.36 15.47 15.47 0 0 0 -6.26 0 3.26 3.26 0 0 1 3.13 -2.36zm-12.68 24.05v-6.63a12.68 12.68 0 1 1 25.37 0v6.64a28.2 28.2 0 0 0 0.57 5h-26.52a28.22 28.22 0 0 0 0.57 -5zm12.68 18.46a4.74 4.74 0 0 1 -4.47 -3.46h8.88a4.74 4.74 0 0 1 -4.44 3.46z" fill="#666"/></g></g></svg><svg viewBox="-15 -15 95.08 90.62" width="62" height="62" id="cart" y="62"><title>icon-cart</title><g id="cart-Layer_2" data-name="Layer 2"><g id="cart-&#xB808;&#xC774;&#xC5B4;_1" data-name="&#xB808;&#xC774;&#xC5B4; 1"><path d="m64.67 11a1.81 1.81 0 0 0 -1.4 -0.66h-51.83l-1.72-8.87a1.81 1.81 0 0 0 -1.78 -1.47h-6.13a1.81 1.81 0 1 0 0 3.63h4.63l7.81 40.87a1.81 1.81 0 0 0 1.75 1.5h6.41a7.37 7.37 0 1 0 2.63 0h23.59a7.37 7.37 0 1 0 2.63 0h5.52a1.81 1.81 0 1 0 0 -3.63h-39.22l-0.56-3.16h41.26a1.81 1.81 0 0 0 1.74 -1.47l5-25.24a1.81 1.81 0 0 0 -0.38 -1.5zm-11 42.24a3.75 3.75 0 1 1 -3.75 -3.75 3.75 3.75 0 0 1 3.75 3.75zm-26.19 0a3.75 3.75 0 1 1 -3.75 -3.75 3.75 3.75 0 0 1 3.75 3.75zm-11.15-17.66-2.46-12.69h6.85l2.08 12.69zm18.46 0h-8.32l-2.08-12.69h10.4zm12.07 0h-8.45v-12.69h10.27zm9.92 0h-6.26l1.82-12.69h6.95zm3.22-16.32h-46.83l-1-5.29h48.89z" fill="#666"/></g></g></svg><svg viewBox="-15 -15 99.2 87.66" width="62" height="62" id="contact" y="124"><title>icon-contact</title><g id="contact-Layer_2" data-name="Layer 2"><g id="contact-&#xB808;&#xC774;&#xC5B4;_1" fill="#666" data-name="&#xB808;&#xC774;&#xC5B4; 1"><path d="m25.71 28.46a2.4 2.4 0 0 0 -0.43 0.13 2.27 2.27 0 0 0 -1.4 2.09 2.18 2.18 0 0 0 0 0.44 2.35 2.35 0 0 0 0.13 0.43 2.06 2.06 0 0 0 0.21 0.39 2.23 2.23 0 0 0 0.62 0.62 2.12 2.12 0 0 0 0.39 0.21 2.06 2.06 0 0 0 0.43 0.13 2.09 2.09 0 0 0 0.44 0 2.26 2.26 0 1 0 -0.44 -4.48z"/><path d="m45.14 29.82a2.31 2.31 0 0 0 -0.21 -0.39 2.22 2.22 0 0 0 -0.28 -0.35 2.22 2.22 0 0 0 -0.73 -0.49 2.32 2.32 0 0 0 -0.42 -0.13 2.17 2.17 0 0 0 -0.88 0 2.41 2.41 0 0 0 -0.43 0.13 2.28 2.28 0 0 0 -0.39 0.21 2.43 2.43 0 0 0 -0.34 0.28 2.13 2.13 0 0 0 -0.28 0.35 2.19 2.19 0 0 0 -0.21 0.39 2.15 2.15 0 0 0 -0.13 0.42 2.24 2.24 0 0 0 0 0.44 2.18 2.18 0 0 0 0 0.44 2.14 2.14 0 0 0 0.13 0.43 2.19 2.19 0 0 0 0.21 0.39 2.16 2.16 0 0 0 0.28 0.34 2 2 0 0 0 0.34 0.28 2.27 2.27 0 0 0 0.81 0.34 2.09 2.09 0 0 0 0.44 0 2.16 2.16 0 0 0 0.44 0 2 2 0 0 0 0.42 -0.13 2.21 2.21 0 0 0 0.39 -0.21 2 2 0 0 0 0.34 -0.28 2.25 2.25 0 0 0 0.28 -0.34 2.31 2.31 0 0 0 0.21 -0.39 2.46 2.46 0 0 0 0.13 -0.43 2.19 2.19 0 0 0 0 -0.44 2.24 2.24 0 0 0 0 -0.44 2.51 2.51 0 0 0 -0.12 -0.42z"/><path d="m68.15 30.43a33.71 33.71 0 0 0 -67.15 0.01 9.56 9.56 0 0 0 8.57 13.9h4.13a23.06 23.06 0 0 0 34.7 8.73l6.41 1.14a11.49 11.49 0 0 0 13.5 -11.31v-4.11a9.53 9.53 0 0 0 -0.16 -8.36zm-58.71 10.46a6.11 6.11 0 0 1 0.13 -12.22h1.93a24.89 24.89 0 0 0 0.09 12.22zm4.1-15.68h-4a9.51 9.51 0 0 0 -3.47 0.65 29.56 29.56 0 0 1 57 0 9.52 9.52 0 0 0 -3.47 -0.65h-4a23.06 23.06 0 0 0 -42.14 0zm34.54 23.59l-1.51-0.27a3.64 3.64 0 1 0 -5.41 4.52 19.66 19.66 0 1 1 6.92 -4.25zm13.46-0.27a7.32 7.32 0 0 1 -6 1.6l-3.37-0.6a23.1 23.1 0 0 0 3.34 -5.18h4.13a9.51 9.51 0 0 0 4.53 -1.14 7.32 7.32 0 0 1 -2.63 5.32zm4.16-13.06a6.13 6.13 0 0 1 -6.07 5.42h-2a24.89 24.89 0 0 0 0.09 -12.22h1.94a6.11 6.11 0 0 1 6.1 5.83v0.28a6.13 6.13 0 0 1 -0.06 0.69z"/></g></g></svg><svg id="filter" viewBox="-15 -15 81.33 74.79" data-name="&#xB808;&#xC774;&#xC5B4; 1" width="62" height="62" y="186"><title>Artboard 2</title><path d="m49.84 0h-48.34a1.5 1.5 0 0 0 -1.5 1.5v9.73a1.5 1.5 0 0 0 1.5 1.5h3.63l14.87 18.96v11.61a1.5 1.5 0 0 0 2.21 1.32l8.34-4.47a1.5 1.5 0 0 0 0.79 -1.32v-7.14l14.86-19h3.64a1.5 1.5 0 0 0 1.5 -1.5v-9.69a1.5 1.5 0 0 0 -1.5 -1.5zm-21.18 30.25a1.5 1.5 0 0 0 -0.32 0.92v6.76l-5.34 2.86v-9.62a1.5 1.5 0 0 0 -0.32 -0.92l-13.74-17.52h33.45zm19.68-20.52h-45.34v-6.73h45.34z" fill="#991717"/></svg><svg viewBox="-15 -15 70 66.8" width="62" height="62" id="like-on" y="248"><title>icon-like-on</title><g id="like-on-Layer_2" data-name="Layer 2"><g id="like-on-&#xB808;&#xC774;&#xC5B4;_1" data-name="&#xB808;&#xC774;&#xC5B4; 1"><path d="m19.88 6.5a10.47 10.47 0 0 1 9.59 -6.5c5.78 0 9.94 4.95 10.46 10.84a10.74 10.74 0 0 1 -0.34 4.09 18.1 18.1 0 0 1 -5.52 9.2l-14.19 12.67-14-12.67a18.1 18.1 0 0 1 -5.48 -9.2 10.81 10.81 0 0 1 -0.34 -4.09c0.53-5.9 4.69-10.84 10.47-10.84a10.14 10.14 0 0 1 9.35 6.5z" fill="#bf1d1d"/></g></g></svg><svg viewBox="-15 -15 70 66.8" width="62" height="62" id="like" y="310"><title>icon-like</title><g id="like-Layer_2" data-name="Layer 2"><g id="like-&#xB808;&#xC774;&#xC5B4;_1" data-name="&#xB808;&#xC774;&#xC5B4; 1"><path d="m19.88 6.5a10.47 10.47 0 0 1 9.59 -6.5c5.78 0 9.94 4.95 10.46 10.84a10.74 10.74 0 0 1 -0.34 4.09 18.1 18.1 0 0 1 -5.52 9.2l-14.19 12.67-14-12.67a18.1 18.1 0 0 1 -5.48 -9.2 10.81 10.81 0 0 1 -0.34 -4.09c0.53-5.9 4.69-10.84 10.47-10.84a10.14 10.14 0 0 1 9.35 6.5z" fill="#ccc"/></g></g></svg><svg viewBox="-15 -15 75.28 72.76" width="62" height="62" id="profile" y="372"><title>icon-profile</title><g id="profile-Layer_2" data-name="Layer 2"><g id="profile-&#xB808;&#xC774;&#xC5B4;_1" data-name="&#xB808;&#xC774;&#xC5B4; 1"><path d="m38.41 29.09a25.13 25.13 0 0 0 -8.58 -3.79 14.88 14.88 0 0 0 4.87 -11.3c0-7.74-5.41-14-12.06-14s-12.07 6.3-12.07 14a14.88 14.88 0 0 0 4.88 11.3 25.13 25.13 0 0 0 -8.58 3.79c-4.43 3.12-6.87 7.34-6.87 11.91a1.81 1.81 0 0 0 1.81 1.81h41.66a1.81 1.81 0 0 0 1.81 -1.81c0-4.53-2.44-8.74-6.87-11.86zm-3.71 10.06v-3.23a1.81 1.81 0 0 0 -3.61 0v3.23h-16.9v-3.23a1.81 1.81 0 0 0 -3.61 0v3.23h-6.78a12 12 0 0 1 5.15 -7.15 23.89 23.89 0 0 1 13.69 -4 23.89 23.89 0 0 1 13.69 4 11.94 11.94 0 0 1 5.15 7.1zm-20.51-25.15c0-5.75 3.79-10.42 8.45-10.42s8.45 4.71 8.45 10.42-3.79 10.46-8.45 10.46-8.45-4.68-8.45-10.46z" fill="#666"/></g></g></svg><svg id="search" viewBox="-15 -15 58.5 57.41" data-name="&#xB808;&#xC774;&#xC5B4; 1" width="62" height="62" y="434"><title>icon-search</title><path d="m27.54 21.85l-7.46-7.46a10.43 10.43 0 1 0 -9.65 6.48 10.34 10.34 0 0 0 5.38 -1.53l7.12 7.12a3.26 3.26 0 1 0 4.61 -4.61zm-13.82-5.85a6.45 6.45 0 0 1 -3.28 0.92 6.52 6.52 0 1 1 6.56 -6.48 6.45 6.45 0 0 1 -0.42 2.24 6.52 6.52 0 0 1 -2.86 3.32z" fill="#aaa"/></svg><svg viewBox="-15 -15 60.24 73.85" width="62" height="62" id="shopping-bag" y="496"><title>icon-shopping-bag</title><g id="shopping-bag-Layer_2" data-name="Layer 2"><g id="shopping-bag-&#xB808;&#xC774;&#xC5B4;_1" data-name="&#xB808;&#xC774;&#xC5B4; 1"><path d="m27.4 10.17h-3.24v-5.69l-4.47-4.48h-9.15l-4.46 4.48v5.69h-3.25a2.84 2.84 0 0 0 -2.83 2.83v28a2.84 2.84 0 0 0 2.83 2.83h24.57a2.84 2.84 0 0 0 2.84 -2.83v-28a2.84 2.84 0 0 0 -2.84 -2.83zm-16.86-5.69h9.15v5.69h-9.15zm16.7 36.37h-24.24v-27.68h3.08v5.05h4.46v-5.05h9.15v5.05h4.46v-5.05h3.08z" fill="#666"/></g></g></svg><svg viewBox="-15 -15 73.09 70.99" width="62" height="62" id="star-on" y="558"><title>icon-star-on</title><g id="star-on-Layer_2" data-name="Layer 2"><g id="star-on-&#xB808;&#xC774;&#xC5B4;_1" data-name="&#xB808;&#xC774;&#xC5B4; 1"><path d="m21.55 0 6.65 13.49l14.89 2.16-10.77 10.51 2.54 14.84-13.31-7-13.32 7 2.54-14.83-10.77-10.51 14.89-2.16z" fill="#bf1d1d"/></g></g></svg><svg viewBox="-15 -15 73.09 70.99" width="62" height="62" id="star" y="620"><title>icon-star</title><g id="star-Layer_2" data-name="Layer 2"><g id="star-&#xB808;&#xC774;&#xC5B4;_1" data-name="&#xB808;&#xC774;&#xC5B4; 1"><path d="m21.55 0 6.65 13.49l14.89 2.16-10.77 10.51 2.54 14.84-13.31-7-13.32 7 2.54-14.83-10.77-10.51 14.89-2.16z" fill="#ccc"/></g></g></svg></svg>
